<svg width="480" height="480" xmlns="http://www.w3.org/2000/svg" xmlns:svg="http://www.w3.org/2000/svg" xmlns:xlink="http://www.w3.org/1999/xlink">
 <!-- Created with SVG-edit - http://www.86y.org/demo/svg/-->
 <defs>
  <symbol id="svg_11" class="icon" height="1024" width="1472" xmlns="http://www.w3.org/2000/svg">
   <defs>
    <style type="text/css"/>
   </defs>
   <g>
    <title>background</title>
    <rect x="-1" y="-1" width="582" height="402" id="svg_10" fill="none"/>
   </g>
   <g>
    <title>Layer 1</title>
    <path d="m1448.03955,535.47146c16.39551,-9.52665 24.59901,-21.99874 24.63353,-34.48234l0.04602,-14.53159c0,0.36818 -0.03452,0.73636 -0.04602,1.10454c0.52926,-13.01286 -7.7778,-26.14077 -24.9787,-36.07011l-754.04368,-435.33807c-33.21672,-19.19137 -86.90194,-19.17987 -119.88854,0l-573.62409,333.34076l-0.13807,167.94751l874.48449,504.79748l0,-14.5316l0,14.5316l573.44,-333.34076c16.384,-9.52666 24.59902,-21.99875 24.63353,-34.48234l0.04603,-14.52009c0,0.36818 -0.03452,0.72485 -0.04603,1.09303c0.52926,-13.00135 -7.7893,-26.12926 -24.9902,-36.0586l-28.4764,-16.45304l0.04602,-36.20818l28.90211,-16.7982z" fill="#820018" id="svg_9"/>
    <path d="m874.48449,1007.70804l0,14.5316l-874.48449,-504.79748l0.04602,-14.5316l874.43847,504.79748z" fill="#D07400" id="svg_8"/>
    <path d="m1447.56782,604.93088c33.22823,19.17986 33.40081,50.26804 0.39119,69.44791l-573.47452,333.32925l-874.43847,-504.79748l573.57807,-333.31775c33.02112,-19.17987 86.68333,-19.17987 119.91155,0l754.03218,435.34957l0,-0.0115z" fill="#A50020" id="svg_7"/>
    <path d="m1394.54993,541.68449l-530.432,308.2125l0,138.90732l530.25942,-308.21249c16.384,-9.52665 24.59901,-21.99874 24.63353,-34.48234l0.18409,-138.90732c-0.04603,12.4951 -8.24953,24.96719 -24.64504,34.49384l0,-0.01151z" fill="#E0E0E2" id="svg_6"/>
    <path d="m1447.69438,451.49196c33.21672,19.17986 33.3778,50.27955 0.39119,69.45941l-573.60108,333.32926l-874.33492,-504.78598l573.60108,-333.35227c32.99811,-19.16836 86.68333,-19.17986 119.90005,0l754.04368,435.34958z" fill="#C60024" id="svg_5"/>
    <path d="m0.14957,349.49465l-0.14957,167.94751l874.48449,504.79748l0,-167.95901l-874.33492,-504.78598z" fill="#A50020" id="svg_4"/>
    <path d="m1448.03955,535.47146c16.39551,-9.52665 24.59901,-21.99874 24.63353,-34.48234l0.04602,-14.53159c-0.03452,12.4951 -8.23802,24.96719 -24.63353,34.49384l-573.60108,333.32926l0,167.95901l573.44,-333.34076c16.384,-9.52666 24.59902,-21.99875 24.63353,-34.48234l0.04603,-14.52009c-0.03452,12.48359 -8.24953,24.95568 -24.64504,34.48234l-562.23353,326.79406l0,-138.89582l562.31407,-326.80557z" fill="#820018" id="svg_3"/>
    <path d="m1000.75865,841.44036l-62.0613,35.84l0.37968,134.06346l30.95012,-44.8489l31.12269,9.02041l-0.37968,-134.07497" fill="#005ECF" id="svg_2"/>
    <path d="m319.31252,360.79327l-36.10073,-38.62217l66.07794,21.19884l-29.97721,17.42333m156.08963,-17.85024l-223.22152,-62.64931l-41.35708,24.04047l108.64906,129.22088l46.22654,-26.86877l-22.74639,-24.4407l43.90521,-25.52133l42.51776,12.95411l46.01308,-26.73535m84.5152,-100.84458l-39.75616,-22.95986l-72.70842,42.25094l39.75616,22.94651l72.70842,-42.23759m245.63439,-91.01226l-39.75616,-22.94652l-73.88242,42.93132l-19.8514,-95.46815l-33.91281,-19.58459l-125.95233,73.1887l39.75616,22.95985l73.65562,-42.81125l15.2621,98.18972l33.88613,19.5579l130.80846,-76.01698" fill="#FFFFFF" id="svg_1" stroke="null"/>
   </g>
  </symbol>
  <symbol id="svg_14" height="200" width="200" viewBox="0 0 1024 1024" class="icon" xmlns:xlink="http://www.w3.org/1999/xlink" xmlns="http://www.w3.org/2000/svg">
   <defs>
    <style type="text/css"/>
   </defs>
   <path d="m328.33,526.43m-26.9,0a26.9,26.9 0 1 0 53.8,0a26.9,26.9 0 1 0 -53.8,0z"/>
   <path d="m706.49,527.44m-26.9,0a26.9,26.9 0 1 0 53.8,0a26.9,26.9 0 1 0 -53.8,0z"/>
   <path d="m610.81,664.21a8,8 0 0 0 -8,8a41.52,41.52 0 1 1 -83,0a8,8 0 0 0 -16.07,0a41.52,41.52 0 1 1 -83,0a8,8 0 0 0 -16.07,0a57.58,57.58 0 0 0 107.15,29.3a57.57,57.57 0 0 0 107.14,-29.3a8,8 0 0 0 -8.15,-8z"/>
   <path d="m926.89,572.21a262.52,262.52 0 0 0 -22.89,-106.76c3.53,-12.49 15.55,-62.74 15.55,-167.33c0,-105.21 -25.21,-163.14 -43.1,-170.68a12.2,12.2 0 0 0 -13.69,2.35l-157.76,154.21c-118.32,-48.78 -267.69,-48.78 -386,0l-157.77,-154.21a12.22,12.22 0 0 0 -13.7,-2.35c-17.89,7.53 -43.09,65.4 -43.09,170.51c0,104.75 12,155 15.55,167.51a262.33,262.33 0 0 0 -22.88,106.75l0,42.86a294.31,294.31 0 0 0 3.39,44.88l0,0.27a8,8 0 0 0 0.53,2.85a260.73,260.73 0 0 0 42.62,106.27a8,8 0 0 0 4.06,5.71c55.74,76.18 153.76,122.63 274.88,122.63l178.83,0c121.12,0 219.14,-46.44 274.88,-122.63a8,8 0 0 0 4.06,-5.71a260.73,260.73 0 0 0 42.64,-106.34a8,8 0 0 0 0.5,-2.77l0,-0.19a294.29,294.29 0 0 0 3.4,-45l-0.01,-42.83zm-325.47,309.39l-178.84,0c-125.33,0 -210,-46 -258.7,-110.88l64.43,-33.09a8,8 0 0 0 -7.35,-14.3l-66.41,34.11a254.24,254.24 0 0 1 -36.13,-89.19l106.22,0a8,8 0 1 0 0,-16.07l-108.93,0a273.06,273.06 0 0 1 -2.53,-37.11l0,-42.86a246.89,246.89 0 0 1 22.68,-102.87l1.3,-2.88l-1,-3c-0.16,-0.47 -15.66,-48.56 -15.66,-165.52c0,-100.51 22.71,-146.49 31.63,-154.56l163.26,159.62l4.94,-2.1c116.79,-49.8 266.48,-49.81 383.31,0l4.94,2.1l163.25,-159.6c8.93,8.12 31.64,54.19 31.64,154.72c0,116.79 -15.47,164.88 -15.67,165.35l-1,3l1.3,2.86a247.07,247.07 0 0 1 22.7,102.87l0,42.86a273.06,273.06 0 0 1 -2.53,37.11l-108.91,0a8,8 0 1 0 0,16.07l106.21,0a254.24,254.24 0 0 1 -36.13,89.19l-66.44,-34.09a8,8 0 0 0 -7.35,14.3l64.43,33.09c-48.61,64.83 -133.33,110.87 -258.66,110.87z"/>
   <path d="m233,342.2c-52.08,-35.34 -53.38,-106.25 -53.4,-108.6a8,8 0 0 0 -16,-1.1c-0.08,0.76 0.39,82.27 60.41,123a8,8 0 1 0 9,-13.29l-0.01,-0.01zm567.27,13.3c60,-40.72 60.49,-122.23 60.41,-123a8,8 0 0 0 -16,1c0,0.72 -0.71,72.9 -53.4,108.65a8,8 0 1 0 9,13.29l-0.01,0.06z"/>
  </symbol>
 </defs>
 <g class="layer">
  <title>Layer 1</title>
  <use x="626.89421" y="1272.96939" transform="matrix(0.30829622712955634,0,0,0.30829622712955634,-180.39709625869986,-313.07962897803384) " xlink:href="#svg_11" id="svg_12"/>
  <g id="svg_13"/>
  <use fill="#ffffff" x="802.94997" y="507.79649" transform="rotate(-44.01715087890625 277.7416076660156,223.7803497314453)  matrix(0.7692913988022714,0,0,0.6177476061747322,-416.8907547456641,-151.68332582668995) " xlink:href="#svg_14" id="svg_15"/>
  <g id="svg_16"/>
 </g>
</svg>